<?xml version="1.0" standalone="no"?>
<!DOCTYPE svg PUBLIC "-//W3C//DTD SVG 20010904//EN"
 "http://www.w3.org/TR/2001/REC-SVG-20010904/DTD/svg10.dtd">
<svg version="1.0" xmlns="http://www.w3.org/2000/svg"
 width="201.000000pt" height="251.000000pt" viewBox="0 0 201.000000 251.000000"
 preserveAspectRatio="xMidYMid meet">

<g transform="translate(0.000000,251.000000) scale(0.100000,-0.100000)"
fill="#000000" stroke="none">
<path d="M1207 1520 c-54 -16 -56 -26 -57 -263 0 -126 4 -226 10 -237 5 -10
26 -24 46 -30 45 -15 108 0 124 30 13 25 13 445 0 470 -6 11 -27 24 -48 30
-42 11 -37 11 -75 0z m63 -264 c0 -155 -3 -205 -12 -209 -36 -12 -38 2 -38
209 l0 204 25 0 25 0 0 -204z"/>
<path d="M540 1256 l0 -266 70 0 c62 0 74 3 95 25 25 24 25 24 25 238 0 264 2
259 -114 265 l-76 4 0 -266z m115 -1 l0 -190 -27 -3 -28 -3 0 196 0 196 28 -3
27 -3 0 -190z"/>
<path d="M842 1275 c3 -229 4 -246 23 -264 46 -45 151 -27 166 29 4 14 7 127
8 253 l1 227 -35 0 -35 0 0 -230 c0 -213 -1 -230 -18 -239 -38 -20 -42 2 -42
241 l0 228 -35 0 -36 0 3 -245z"/>
<path d="M1454 1509 c-3 -6 -1 -16 6 -22 9 -9 14 -8 24 5 7 10 17 14 21 10 5
-4 5 -1 0 7 -7 12 -10 11 -20 -2 -15 -21 -29 -22 -21 -2 6 17 0 20 -10 4z"/>
<path d="M1480 1410 c-23 -7 -23 -8 -3 -9 12 -1 24 -7 26 -13 3 -7 6 -3 6 10
1 12 0 22 -1 21 -2 -1 -14 -5 -28 -9z"/>
<path d="M1454 1309 c-10 -16 11 -31 37 -26 21 4 21 4 -5 6 -21 1 -27 5 -22
16 6 17 0 20 -10 4z"/>
<path d="M1454 1209 c-9 -16 21 -43 40 -36 9 4 16 16 16 27 0 15 -7 20 -24 20
-14 0 -28 -5 -32 -11z m46 -15 c0 -9 -7 -14 -17 -12 -25 5 -28 28 -4 28 12 0
21 -6 21 -16z"/>
<path d="M1473 1103 c9 -2 23 -2 30 0 6 3 -1 5 -18 5 -16 0 -22 -2 -12 -5z"/>
<path d="M1480 1046 c0 -2 7 -9 15 -16 9 -7 15 -8 15 -2 0 5 -7 12 -15 16 -8
3 -15 4 -15 2z"/>
<path d="M1455 1030 c-4 -6 -1 -17 5 -25 14 -16 36 -20 44 -7 3 5 -5 8 -17 8
-15 -1 -22 5 -21 17 2 19 -2 22 -11 7z"/>
</g>
</svg>
