<?xml version="1.0" standalone="no"?>
<!DOCTYPE svg PUBLIC "-//W3C//DTD SVG 20010904//EN"
 "http://www.w3.org/TR/2001/REC-SVG-20010904/DTD/svg10.dtd">
<svg version="1.0" xmlns="http://www.w3.org/2000/svg"
 width="296.000000pt" height="170.000000pt" viewBox="0 0 296.000000 170.000000"
 preserveAspectRatio="xMidYMid meet">

<g transform="translate(0.000000,170.000000) scale(0.100000,-0.100000)"
fill="#000000" stroke="none">
<path d="M24 1675 l-24 -24 2 -812 c3 -789 4 -811 22 -825 17 -12 232 -14
1458 -14 1425 0 1438 0 1458 20 20 20 20 33 20 828 0 444 -4 812 -8 818 -22
34 -37 34 -1477 34 l-1426 0 -25 -25z m2404 -205 c99 -13 212 -46 212 -63 0
-7 -24 -55 -53 -107 -41 -74 -57 -94 -73 -93 -10 2 -52 7 -93 13 -179 24 -296
-35 -353 -180 -31 -78 -33 -305 -3 -395 39 -121 138 -185 287 -185 l68 0 0
105 0 105 -85 0 c-47 0 -85 2 -85 5 0 3 24 52 52 110 l53 105 172 0 173 0 0
-310 0 -310 -27 -11 c-120 -45 -370 -63 -497 -35 -293 66 -449 299 -433 651 8
191 54 317 153 424 133 144 305 199 532 171z m-1848 -625 l0 -615 -140 0 -140
0 0 615 0 615 140 0 140 0 0 -615z m804 538 c14 -43 93 -294 176 -558 83 -264
159 -506 170 -538 l19 -58 -152 3 -151 3 -17 60 c-9 33 -24 86 -33 117 l-17
58 -184 0 -184 0 -16 -57 c-9 -32 -24 -85 -34 -118 l-17 -60 -142 -3 c-111 -2
-141 0 -137 10 16 44 315 984 315 990 0 5 -25 8 -55 8 -30 0 -55 3 -55 8 0 4
23 53 52 109 l53 103 192 0 191 0 26 -77z"/>
<path d="M1140 923 c-30 -103 -56 -192 -58 -200 -3 -10 21 -13 112 -13 64 0
116 1 116 3 0 7 -109 390 -112 392 -2 2 -28 -80 -58 -182z"/>
</g>
</svg>
