<?xml version="1.0" standalone="no"?>
<!DOCTYPE svg PUBLIC "-//W3C//DTD SVG 20010904//EN"
 "http://www.w3.org/TR/2001/REC-SVG-20010904/DTD/svg10.dtd">
<svg version="1.0" xmlns="http://www.w3.org/2000/svg"
 width="484.000000pt" height="104.000000pt" viewBox="0 0 484.000000 104.000000"
 preserveAspectRatio="xMidYMid meet">

<g transform="translate(0.000000,104.000000) scale(0.100000,-0.100000)"
fill="#000000" stroke="none">
<path d="M3902 936 c-56 -57 -102 -109 -102 -117 0 -7 108 -121 240 -254 l240
-240 -128 -128 c-70 -70 -132 -127 -137 -127 -13 0 -145 132 -145 145 0 5 50
60 110 120 l111 111 -21 19 c-21 19 -21 19 -146 -106 -71 -72 -124 -134 -124
-145 0 -24 191 -214 216 -214 9 0 82 64 161 142 l143 142 143 -142 c79 -78
152 -142 161 -142 25 0 216 190 216 215 0 13 -47 67 -120 140 l-120 120 -20
-20 -20 -20 110 -110 110 -110 -77 -77 -78 -78 -132 132 -133 133 240 240
c145 145 240 248 240 260 0 25 -190 215 -215 215 -10 0 -80 -61 -162 -142
l-143 -142 -143 142 c-79 78 -150 142 -158 142 -9 0 -61 -47 -117 -104z m270
-113 l148 -148 148 148 c81 81 152 147 157 147 6 0 43 -33 83 -73 l72 -72
-230 -230 -230 -230 -225 225 c-124 124 -225 228 -225 233 0 8 141 147 150
147 2 0 71 -66 152 -147z"/>
<path d="M0 845 c0 -3 57 -145 126 -317 70 -172 129 -319 131 -325 4 -9 28
-13 72 -13 l66 0 125 313 c69 171 126 320 128 329 3 16 -5 18 -71 18 l-74 0
-78 -211 c-43 -115 -84 -217 -90 -225 -8 -12 -28 31 -94 210 l-84 226 -78 0
c-44 0 -79 -2 -79 -5z"/>
<path d="M683 537 c-73 -171 -135 -320 -139 -330 -6 -16 0 -18 67 -15 l74 3
29 73 30 73 140 -3 141 -3 29 -72 30 -73 74 0 c66 0 73 2 68 18 -3 9 -66 158
-139 329 l-132 313 -70 0 -70 0 -132 -313z m246 33 l39 -95 -80 -3 c-44 -2
-82 -1 -85 1 -3 4 60 166 74 190 7 12 9 10 52 -93z"/>
<path d="M1114 833 c4 -10 57 -96 119 -193 l112 -175 5 -135 5 -135 73 -3 72
-3 0 132 0 133 120 188 c66 103 120 192 120 198 0 7 -27 10 -77 8 l-78 -3 -72
-119 c-40 -66 -76 -123 -80 -127 -5 -5 -43 50 -86 121 l-78 130 -81 0 c-72 0
-79 -2 -74 -17z"/>
<path d="M1830 520 l0 -330 70 0 70 0 0 201 c0 117 4 199 9 197 5 -1 76 -91
158 -198 l148 -195 63 -3 62 -3 0 331 0 330 -70 0 -70 0 0 -195 c0 -107 -3
-195 -7 -195 -5 0 -75 88 -156 195 l-148 195 -64 0 -65 0 0 -330z"/>
<path d="M2535 837 c-3 -7 -4 -154 -3 -327 l3 -315 253 -3 253 -2 -3 62 -3 63
-177 3 -178 2 0 70 0 70 155 0 156 0 -3 63 -3 62 -152 3 -153 3 0 64 0 65 175
0 175 0 0 65 0 65 -245 0 c-188 0 -247 -3 -250 -13z"/>
<path d="M3150 520 l0 -330 70 0 70 0 0 105 0 105 60 0 60 0 70 -105 70 -105
81 0 c61 0 80 3 76 13 -2 6 -37 59 -77 117 -40 57 -67 106 -62 108 6 2 28 16
50 31 97 71 109 236 23 322 -57 57 -112 69 -318 69 l-173 0 0 -330z m376 167
c32 -37 32 -87 0 -124 -23 -27 -28 -28 -130 -31 l-106 -4 0 89 c0 50 3 93 8
97 4 4 51 6 105 4 94 -3 100 -4 123 -31z"/>
</g>
</svg>
